<?xml version="1.0" standalone="no"?>
<!DOCTYPE svg PUBLIC "-//W3C//DTD SVG 20010904//EN"
 "http://www.w3.org/TR/2001/REC-SVG-20010904/DTD/svg10.dtd">
<svg version="1.0" xmlns="http://www.w3.org/2000/svg"
 width="1000.000000pt" height="1000.000000pt" viewBox="0 0 1000.000000 1000.000000"
 preserveAspectRatio="xMidYMid meet">

<g transform="translate(0.000000,1000.000000) scale(0.100000,-0.100000)"
fill="#000000" stroke="none">
<path d="M1235 9978 c-6 -26 -2 -78 7 -93 3 -6 3 -73 1 -150 -7 -207 -8 -215
-13 -215 -9 0 -5 -214 3 -228 5 -7 5 -18 -1 -25 -10 -13 -8 -162 3 -219 4 -22
3 -43 -2 -50 -6 -8 -7 -47 -2 -98 4 -47 5 -116 2 -155 -3 -38 -5 -92 -4 -120
4 -183 11 -1411 7 -1480 -1 -22 5 -33 21 -40 22 -9 39 -48 28 -65 -3 -4 1 -11
7 -13 10 -4 10 -6 1 -6 -17 -1 -16 -16 1 -54 16 -36 25 -81 30 -147 2 -25 5
-50 7 -56 5 -12 -32 -84 -43 -84 -5 0 -8 -9 -8 -20 0 -11 6 -19 13 -17 15 3
13 -56 -3 -61 -5 -2 -10 -10 -10 -18 0 -9 -4 -13 -9 -10 -16 10 -23 -95 -26
-388 -3 -227 -1 -293 10 -310 7 -11 16 -32 20 -46 8 -25 8 -25 -14 -6 l-21 19
0 -44 c-1 -24 0 -111 2 -194 3 -127 2 -318 -2 -415 -1 -14 0 -139 2 -278 2
-163 -1 -252 -7 -252 -5 0 -4 -4 3 -9 14 -9 27 -81 15 -81 -5 0 -9 -36 -10
-81 -1 -44 -7 -96 -12 -115 -10 -35 -7 -220 5 -309 8 -65 11 -1142 3 -1220 -4
-35 -2 -63 3 -66 6 -4 6 -9 1 -12 -5 -3 -7 -27 -4 -54 4 -26 3 -84 -1 -128 -3
-44 -5 -108 -4 -142 1 -39 -2 -63 -8 -63 -6 0 -5 -4 2 -8 9 -6 11 -41 8 -137
-4 -94 -2 -132 7 -137 8 -5 9 -11 2 -16 -14 -9 -16 -62 -4 -85 6 -9 7 -22 3
-28 -3 -6 -7 -226 -9 -488 -1 -263 -5 -483 -9 -489 -4 -7 -4 -12 1 -12 4 0 8
-39 9 -88 0 -48 2 -103 3 -122 0 -19 -2 -55 -6 -80 -4 -25 -7 -71 -6 -102 0
-32 -3 -58 -8 -58 -9 0 1 -104 10 -108 4 -1 3 -39 -1 -85 -4 -45 -10 -109 -12
-142 -2 -33 -7 -72 -11 -88 -5 -18 -3 -27 5 -27 9 0 9 -4 2 -13 -7 -8 -7 -17
2 -30 13 -16 236 -17 4400 -17 l4386 0 0 4440 c0 3118 -3 4440 -11 4440 -5 0
-7 5 -4 11 5 7 -5 8 -31 3 -33 -6 -36 -5 -30 11 5 13 0 11 -19 -7 -27 -27 -62
-28 -77 -2 -5 8 -28 11 -65 9 -32 -1 -58 -3 -58 -4 0 -4 -49 -13 -90 -16 -22
-1 -52 -6 -68 -10 -21 -6 -37 -1 -67 19 -25 17 -40 22 -40 14 0 -7 -8 -3 -18
10 -12 15 -24 21 -35 16 -13 -5 -17 -1 -18 17 0 13 -3 18 -6 12 -2 -7 -8 -13
-12 -13 -15 0 -66 54 -63 67 2 7 -2 13 -8 13 -5 0 -10 -4 -10 -10 0 -5 -4 -10
-10 -10 -5 0 -10 6 -10 14 0 7 -7 19 -15 26 -8 7 -15 25 -15 41 0 16 -5 29
-12 29 -10 0 -9 3 1 9 11 7 9 10 -8 16 -11 3 -21 13 -21 21 0 20 -18 17 -22
-3 -3 -14 -8 -11 -21 14 -18 34 -23 58 -7 33 8 -12 10 -9 10 12 0 15 -5 30
-11 34 -6 3 -8 17 -5 30 5 17 2 24 -9 24 -8 0 -15 9 -15 19 0 11 -6 22 -12 24
-10 4 -10 8 1 15 11 8 10 11 -4 19 -10 6 -19 22 -20 36 -3 23 -1 25 15 17 16
-9 17 -6 9 31 -5 22 -6 45 -3 51 4 7 2 8 -4 4 -33 -20 7 110 44 145 21 20 28
21 44 11 11 -7 26 -12 33 -12 7 0 18 -5 24 -11 23 -23 206 -93 283 -109 205
-42 210 -42 274 -23 11 3 16 1 12 -5 -7 -12 51 -22 137 -22 l67 0 0 250 0 250
-4380 0 -4380 0 -5 -22z m3130 -81 c20 -19 20 -19 -10 -4 -16 9 -39 23 -50 31
-19 15 -18 16 10 4 17 -6 39 -20 50 -31z m3635 -7 c0 -5 -4 -10 -9 -10 -6 0
-13 5 -16 10 -3 6 1 10 9 10 9 0 16 -4 16 -10z m1387 -66 c-3 -3 -12 -4 -19
-1 -8 3 -5 6 6 6 11 1 17 -2 13 -5z m29 -31 c-10 -10 -19 5 -10 18 6 11 8 11
12 0 2 -7 1 -15 -2 -18z m-29 -5 c-3 -8 -6 -5 -6 6 -1 11 2 17 5 13 3 -3 4
-12 1 -19z m180 -24 c-3 -3 -12 -4 -19 -1 -8 3 -5 6 6 6 11 1 17 -2 13 -5z
m-3647 -8 c0 -3 -4 -8 -10 -11 -5 -3 -10 -1 -10 4 0 6 5 11 10 11 6 0 10 -2
10 -4z m3670 -16 c0 -5 -4 -10 -10 -10 -5 0 -10 5 -10 10 0 6 5 10 10 10 6 0
10 -4 10 -10z m-3921 -34 c-13 -14 -11 -26 5 -26 15 0 30 -29 21 -39 -3 -3
-10 1 -15 9 -11 17 -12 5 -3 -28 4 -18 8 -20 14 -10 7 10 11 10 17 1 4 -6 21
-13 37 -16 22 -3 17 -4 -17 -6 -59 -1 -63 -16 -7 -25 29 -5 43 -12 46 -26 3
-10 11 -16 18 -14 9 4 11 -2 8 -20 -4 -18 0 -28 11 -32 9 -3 16 -13 16 -21 0
-11 -7 -13 -24 -9 -14 3 -27 2 -30 -3 -3 -5 0 -9 7 -8 45 1 54 -4 65 -40 l11
-38 -5 37 c-4 31 -2 37 11 32 10 -4 13 -13 10 -24 -3 -10 -1 -21 4 -24 6 -4 7
-14 4 -24 -6 -15 -5 -15 10 -3 9 7 18 23 18 35 1 15 3 13 8 -9 7 -29 8 -28 12
13 5 45 -6 65 -22 41 -6 -9 -9 1 -9 30 l0 44 22 -29 c13 -16 52 -57 88 -91 47
-46 72 -63 92 -63 20 0 26 -4 22 -15 -4 -8 -2 -15 4 -15 6 0 13 6 15 13 3 6 6
2 6 -11 1 -17 9 -24 30 -28 19 -4 28 -11 25 -19 -4 -9 35 -33 113 -71 120 -58
142 -75 143 -107 0 -43 -70 -68 -92 -33 -5 7 -8 7 -8 -3 0 -7 -6 -11 -15 -7
-9 3 -15 0 -15 -10 0 -10 -6 -14 -15 -11 -8 4 -17 2 -21 -4 -3 -5 -14 -7 -25
-4 -12 4 -19 2 -20 -7 0 -7 -4 -4 -9 7 -5 11 -9 14 -9 8 -2 -25 -69 -85 -95
-85 -30 0 -47 -17 -51 -53 -3 -31 -25 -59 -25 -32 0 22 -16 22 -24 0 -6 -15
-8 -15 -16 -3 -8 12 -10 12 -10 1 0 -10 -11 -12 -47 -7 -100 12 -129 13 -176
3 -41 -7 -51 -6 -68 9 -27 24 -24 31 11 26 21 -3 30 0 30 10 0 23 -22 38 -55
38 -37 0 -98 27 -90 40 3 5 -3 7 -15 5 -11 -2 -19 -1 -18 3 3 11 -33 84 -59
119 -13 18 -23 36 -22 40 4 15 -14 48 -33 61 -10 7 -16 17 -13 22 3 5 1 11 -4
14 -5 3 -15 35 -22 71 -7 36 -15 65 -19 65 -3 0 -7 12 -8 26 -1 15 -7 33 -14
41 -10 12 -8 14 8 11 16 -3 19 3 19 42 0 40 3 46 30 59 17 8 32 18 33 23 2 4
17 8 34 8 25 0 28 3 23 21 -6 18 -4 21 13 17 15 -4 18 -1 15 13 -3 11 1 21 11
25 9 3 16 15 16 25 0 10 7 19 15 19 8 0 20 8 27 19 6 10 22 18 34 17 15 -1 19
-5 13 -10z m1756 -6 c3 -5 1 -10 -4 -10 -6 0 -11 5 -11 10 0 6 2 10 4 10 3 0
8 -4 11 -10z m-1296 -121 c-11 -7 -10 -9 4 -9 9 0 17 -4 17 -10 0 -5 -7 -10
-16 -10 -9 0 -23 -8 -30 -17 -19 -25 -18 1 1 38 9 16 21 27 26 23 8 -4 7 -9
-2 -15z m3473 -15 c-7 -12 -11 -13 -17 -4 -4 7 -2 16 6 21 18 11 23 4 11 -17z
m-3403 -12 c12 -22 18 -89 8 -98 -4 -4 -7 1 -7 10 0 10 -13 31 -29 47 -16 16
-25 29 -20 29 5 0 9 7 9 15 0 21 27 19 39 -3z m-175 -16 c-6 -16 -24 -23 -24
-8 0 10 22 33 27 28 2 -2 1 -11 -3 -20z m121 -56 c3 -5 1 -10 -4 -10 -6 0 -11
5 -11 10 0 6 2 10 4 10 3 0 8 -4 11 -10z m-815 -15 c0 -8 -2 -15 -4 -15 -2 0
-6 7 -10 15 -3 8 -1 15 4 15 6 0 10 -7 10 -15z m-3605 -5 c-3 -5 -10 -10 -16
-10 -5 0 -9 5 -9 10 0 6 7 10 16 10 8 0 12 -4 9 -10z m-247 -96 c19 -9 37 -25
39 -35 3 -10 12 -19 19 -19 8 0 14 -7 14 -15 0 -9 9 -15 25 -15 15 0 24 -5 22
-12 -1 -7 6 -12 15 -10 12 2 16 -2 12 -12 -6 -16 47 -32 67 -20 9 5 10 2 6 -9
-4 -11 -1 -17 9 -17 9 0 12 -5 8 -11 -4 -7 0 -9 14 -5 14 5 24 1 30 -10 10
-19 36 -10 26 9 -3 7 5 -1 19 -16 17 -20 32 -28 48 -25 33 4 30 22 -3 26 -16
2 -28 9 -28 17 0 7 -6 16 -12 18 -8 3 -6 6 5 6 10 1 20 -6 23 -14 8 -20 50
-19 58 1 9 23 0 29 -19 14 -13 -10 -15 -9 -15 9 0 12 5 31 10 42 6 11 7 19 1
19 -5 0 -12 -8 -15 -17 -5 -12 -9 -14 -14 -6 -4 6 -14 11 -22 11 -46 -3 -60 3
-61 25 -1 16 -2 18 -6 5 -2 -10 -8 -18 -13 -18 -11 0 -18 94 -8 98 14 6 9 34
-9 47 -14 11 -9 14 37 24 37 8 57 8 64 1 7 -7 6 -10 -2 -10 -17 0 -15 -27 2
-33 8 -3 17 -1 20 6 2 7 5 2 5 -10 1 -34 17 -28 26 10 7 28 9 29 12 10 3 -13
9 -23 15 -23 6 0 8 9 5 20 -3 11 -1 20 4 20 5 0 9 -12 10 -27 0 -16 3 -22 6
-15 9 24 23 12 18 -15 l-6 -28 18 28 c21 32 33 35 33 6 0 -18 3 -19 15 -9 12
10 16 9 21 -4 3 -9 14 -16 24 -16 10 0 21 -6 23 -12 3 -7 6 -4 7 7 1 19 1 19
11 1 9 -15 13 -16 21 -5 7 10 11 11 14 2 11 -25 40 -50 67 -57 15 -3 25 -11
22 -16 -4 -6 1 -13 9 -16 22 -8 20 -34 -1 -34 -10 -1 -29 -7 -42 -14 -20 -11
-21 -14 -6 -19 9 -4 27 -4 41 -1 20 5 24 2 24 -16 0 -16 4 -20 19 -15 10 3 24
-1 31 -10 14 -17 46 -20 55 -5 3 6 13 10 21 10 8 0 14 -4 14 -10 0 -5 -9 -10
-20 -10 -25 0 -27 -20 -2 -21 9 0 43 -2 74 -4 40 -2 61 1 69 11 17 20 37 17
44 -7 4 -11 5 -22 3 -24 -14 -13 -174 -47 -266 -57 -129 -13 -293 -1 -417 31
-129 33 -316 165 -422 298 -35 43 -63 82 -63 87 0 5 14 -9 32 -32 18 -23 47
-49 66 -58z m6942 -3 c0 -6 -4 -13 -10 -16 -5 -3 -10 1 -10 9 0 9 5 16 10 16
6 0 10 -4 10 -9z m-6720 -56 c0 -14 -4 -25 -9 -25 -4 0 -6 11 -3 25 2 14 6 25
8 25 2 0 4 -11 4 -25z m5740 -15 c0 -5 -4 -10 -10 -10 -5 0 -10 5 -10 10 0 6
5 10 10 10 6 0 10 -4 10 -10z m-5775 -40 c3 -5 -1 -10 -9 -10 -9 0 -16 5 -16
10 0 6 4 10 9 10 6 0 13 -4 16 -10z m115 -9 c0 -11 -31 -24 -39 -16 -3 3 1 10
9 15 19 12 30 12 30 1z m50 -1 c0 -5 -6 -10 -14 -10 -8 0 -18 5 -21 10 -3 6 3
10 14 10 12 0 21 -4 21 -10z m4280 -350 c0 -5 -2 -10 -4 -10 -3 0 -8 5 -11 10
-3 6 -1 10 4 10 6 0 11 -4 11 -10z m3519 -39 c14 -9 5 -18 -18 -17 -18 1 -27
26 -9 26 7 0 19 -4 27 -9z m100 -37 c1 -10 10 -27 19 -36 8 -10 11 -18 7 -18
-14 0 -45 32 -45 47 0 7 -8 13 -17 13 -15 0 -16 2 -3 10 20 13 34 7 39 -16z
m-6875 -229 c-4 -8 -10 -12 -15 -9 -11 6 -2 24 11 24 5 0 7 -7 4 -15z m-28
-52 c-10 -10 -19 5 -10 18 6 11 8 11 12 0 2 -7 1 -15 -2 -18z m-56 7 c0 -5 -5
-10 -11 -10 -5 0 -7 5 -4 10 3 6 8 10 11 10 2 0 4 -4 4 -10z m-30 -25 c0 -8
-8 -23 -17 -33 -22 -23 -27 -42 -10 -42 8 0 7 -4 -3 -10 -10 -6 -11 -10 -2
-10 6 0 12 -9 12 -19 0 -11 4 -22 9 -25 4 -3 11 -18 14 -33 3 -16 9 -36 12
-45 4 -11 3 -18 -4 -18 -6 0 -11 8 -11 17 0 15 -2 14 -15 -3 -17 -23 -20 -48
-3 -38 7 4 8 3 4 -4 -4 -7 -14 -12 -22 -12 -15 0 -19 -16 -5 -24 4 -3 11 -29
14 -57 7 -56 20 -71 52 -63 13 3 28 -2 39 -15 17 -19 17 -20 -3 -33 -12 -7
-21 -20 -21 -29 0 -9 -7 -22 -15 -29 -28 -24 -11 -171 18 -153 5 3 8 0 5 -8
-3 -8 -27 -19 -54 -25 -28 -6 -62 -19 -76 -28 -26 -17 -27 -17 -38 4 -6 11 -8
25 -5 31 9 14 28 138 27 172 -1 18 4 27 14 27 12 0 13 4 3 22 -12 22 -12 22
-20 3 -5 -14 -8 -15 -8 -4 -1 8 4 20 11 27 9 9 8 13 -5 18 -9 3 -19 20 -22 37
-4 18 -14 43 -22 56 -12 18 -13 29 -4 48 8 17 8 28 -1 42 -14 23 7 124 29 142
7 6 13 16 13 21 0 12 91 108 102 108 4 0 8 -7 8 -15z m130 -72 c8 -21 14 -49
15 -63 0 -24 -3 -25 -45 -23 -25 1 -51 2 -58 2 -21 1 2 91 23 91 7 0 15 7 19
15 10 27 32 16 46 -22z m6160 -34 c0 -5 -7 -9 -15 -9 -15 0 -20 12 -9 23 8 8
24 -1 24 -14z m-6001 -164 c-1 -6 -4 -17 -6 -25 -2 -9 -19 -25 -37 -38 -34
-23 -51 -28 -41 -12 10 16 -25 12 -41 -5 -8 -8 -22 -12 -32 -9 -13 4 -12 1 5
-14 l21 -19 -30 -26 c-36 -33 -41 -33 -33 -6 6 19 4 21 -14 16 -28 -7 -27 6 2
18 32 14 30 64 -3 89 -19 14 -20 16 -5 11 52 -19 100 -16 150 9 51 25 68 28
64 11z m-239 -60 c0 -33 -15 -33 -16 0 -1 14 2 25 7 25 5 0 9 -11 9 -25z
m5119 -67 c1 -5 -3 -8 -9 -8 -5 0 -10 12 -9 28 0 24 1 25 9 7 5 -11 9 -23 9
-27z m-43 5 c-10 -10 -19 5 -10 18 6 11 8 11 12 0 2 -7 1 -15 -2 -18z m-6376
-135 c62 -17 66 -21 25 -27 -30 -5 -44 -2 -57 12 -10 9 -27 17 -38 17 -11 0
-20 5 -20 10 0 10 22 8 90 -12z m1330 -15 c-1 -15 -30 -46 -37 -40 -3 4 2 16
12 27 19 21 25 24 25 13z m4997 -139 c-3 -3 -12 -4 -19 -1 -8 3 -5 6 6 6 11 1
17 -2 13 -5z m-56 -77 c-10 -9 -11 -8 -5 6 3 10 9 15 12 12 3 -3 0 -11 -7 -18z
m-4980 -9 c1 -7 2 -25 2 -40 1 -18 7 -28 17 -29 10 0 11 -2 3 -6 -7 -2 -13
-19 -13 -36 1 -32 1 -32 14 -8 13 23 13 22 25 -23 6 -25 16 -46 21 -46 9 0 25
-31 53 -100 5 -14 13 -32 17 -40 4 -9 11 -30 15 -48 3 -18 10 -32 13 -32 4 0
8 -19 9 -41 2 -23 7 -47 12 -53 6 -7 13 -31 17 -54 4 -23 11 -45 15 -48 5 -3
9 -20 9 -39 0 -19 5 -37 10 -40 6 -3 7 -17 4 -31 -4 -15 -2 -24 6 -24 7 0 10
-6 7 -13 -2 -7 -1 -30 3 -52 8 -39 8 -39 9 17 0 31 -3 59 -9 63 -5 3 -7 12 -4
19 9 24 -42 252 -67 298 -7 14 -8 23 -1 30 12 12 92 -145 92 -180 0 -11 5 -24
10 -27 6 -3 10 -18 10 -32 0 -27 30 -134 40 -143 3 -3 14 -25 25 -50 10 -25
35 -67 55 -95 77 -105 130 -184 130 -194 0 -5 4 -11 8 -13 13 -5 63 -98 58
-106 -3 -5 -7 -40 -10 -78 -4 -66 -5 -69 -34 -76 -50 -13 -108 -78 -122 -137
-7 -28 -9 -58 -6 -66 3 -8 2 -15 -3 -15 -8 0 -16 14 -57 105 -14 33 -39 87
-54 120 -66 144 -79 174 -105 240 -15 39 -29 84 -31 100 -6 70 -42 113 -85
102 -25 -7 -33 13 -108 258 -58 186 -72 250 -107 487 -20 132 -20 133 49 167
49 24 57 25 58 9z m4729 2 c0 -5 -2 -10 -4 -10 -3 0 -8 5 -11 10 -3 6 -1 10 4
10 6 0 11 -4 11 -10z m-4651 -70 c0 -10 -3 -8 -9 5 -12 27 -12 43 0 25 5 -8 9
-22 9 -30z m98 -237 c-8 -7 -25 23 -31 57 -7 34 -7 34 14 -9 11 -24 19 -46 17
-48z m5683 -23 c0 -5 -4 -10 -9 -10 -6 0 -13 5 -16 10 -3 6 1 10 9 10 9 0 16
-4 16 -10z m-7209 -561 c-9 -22 -10 -22 -10 -3 -1 11 2 24 6 27 12 12 14 0 4
-24z m0 -161 c-9 -42 -9 -41 -9 22 -1 48 2 59 8 43 5 -13 5 -41 1 -65z m2737
-323 c-2 -13 -8 -6 -21 21 l-18 39 21 -21 c12 -12 20 -29 18 -39z m2142 -60
c13 -14 29 -25 36 -25 6 0 17 -7 24 -15 7 -8 9 -15 6 -15 -12 0 -106 64 -106
72 0 15 17 8 40 -17z m-2106 0 c-4 -8 -8 -15 -10 -15 -2 0 -4 7 -4 15 0 8 4
15 10 15 5 0 7 -7 4 -15z m-836 -38 c-1 -18 5 -49 11 -70 7 -21 11 -40 8 -43
-2 -3 -7 7 -11 21 -4 14 -11 25 -17 25 -6 0 -7 5 -3 11 3 6 0 15 -7 20 -11 6
-11 11 -1 21 6 6 12 20 12 30 0 10 2 18 5 18 2 0 4 -15 3 -33z m2252 13 c8 -5
12 -11 9 -14 -3 -3 -14 1 -25 9 -21 16 -8 20 16 5z m-2316 -54 c3 -14 15 -28
26 -31 11 -3 20 -13 20 -21 0 -8 4 -14 8 -14 5 0 7 -15 5 -32 -3 -25 -2 -29 6
-18 9 12 11 12 16 -2 9 -22 1 -54 -12 -51 -15 3 -66 -53 -61 -68 3 -8 16 -1
36 21 39 40 62 31 37 -16 -8 -16 -15 -45 -15 -64 -1 -19 -7 -46 -15 -60 -8
-14 -14 -46 -15 -71 0 -50 12 -57 55 -32 19 11 20 8 20 -40 0 -30 6 -58 13
-66 12 -12 17 -10 38 15 13 16 33 44 45 62 11 17 25 32 30 32 5 0 18 20 30 45
12 25 26 45 31 45 6 0 3 -11 -6 -25 -9 -13 -16 -30 -16 -37 0 -7 -23 -46 -50
-87 -55 -81 -58 -91 -32 -92 14 0 14 -2 -3 -9 -11 -5 -32 -11 -47 -14 -16 -4
-28 -13 -28 -21 0 -8 -4 -15 -10 -15 -5 0 -10 -4 -10 -8 0 -15 72 -13 96 3 28
18 29 14 9 -25 -20 -39 -63 -81 -70 -69 -4 5 -11 7 -16 4 -5 -4 -9 -1 -9 4 0
6 5 11 11 11 5 0 7 5 4 10 -4 6 -11 8 -16 5 -5 -4 -9 1 -9 9 0 8 -10 31 -21
51 -12 20 -21 47 -21 60 0 14 -4 22 -9 19 -5 -3 -10 12 -10 33 -1 21 -3 50 -4
64 -4 32 -45 170 -55 184 -17 24 -41 156 -44 249 -2 36 2 49 13 54 9 3 20 11
24 19 12 20 24 16 31 -11z m931 -7 c16 -30 16 -30 -4 -19 -12 6 -21 15 -21 20
0 4 -12 13 -27 18 l-28 10 32 1 c26 1 35 -5 48 -30z m-780 -259 c-16 -16 -34
-30 -39 -30 -6 0 5 14 24 30 45 38 52 38 15 0z m40 -40 c-10 -11 -14 -20 -10
-20 5 0 -8 -14 -28 -31 -21 -17 -37 -37 -37 -43 0 -7 -13 -25 -30 -41 -66 -63
-8 31 66 107 45 47 75 68 39 28z m5100 -10 c3 -5 2 -10 -4 -10 -5 0 -13 5 -16
10 -3 6 -2 10 4 10 5 0 13 -4 16 -10z m5 -40 c0 -5 -7 -7 -15 -4 -8 4 -15 8
-15 10 0 2 7 4 15 4 8 0 15 -4 15 -10z m-5140 -24 c0 -2 -8 -10 -17 -17 -16
-13 -17 -12 -4 4 13 16 21 21 21 13z m267 -128 c-3 -7 -5 -2 -5 12 0 14 2 19
5 13 2 -7 2 -19 0 -25z m508 12 c3 -5 1 -10 -4 -10 -6 0 -11 5 -11 10 0 6 2
10 4 10 3 0 8 -4 11 -10z m-698 -102 c-3 -8 -6 -5 -6 6 -1 11 2 17 5 13 3 -3
4 -12 1 -19z m1016 -95 c-7 -2 -19 -2 -25 0 -7 3 -2 5 12 5 14 0 19 -2 13 -5z
m1838 -28 c4 -16 7 -22 8 -12 1 14 7 16 27 11 17 -4 29 -2 34 6 13 20 39 4 33
-19 -5 -21 11 -29 22 -11 11 19 23 10 27 -20 3 -22 1 -29 -8 -26 -9 3 -9 -2
-1 -25 8 -20 16 -27 28 -24 11 4 18 -1 22 -14 4 -17 -1 -22 -29 -27 -19 -3
-31 -10 -28 -15 3 -5 10 -7 15 -3 15 9 47 -24 54 -58 5 -19 12 -28 20 -24 7 2
21 -4 31 -15 16 -18 16 -20 -6 -39 -25 -22 -21 -26 10 -10 11 6 29 15 40 20
29 15 40 12 40 -9 0 -13 -15 -28 -40 -42 -22 -13 -40 -26 -40 -31 0 -4 -8 -8
-19 -8 -10 0 -24 -7 -31 -15 -7 -8 -19 -15 -26 -15 -7 0 -20 -12 -28 -28 -17
-34 -76 -97 -96 -105 -9 -3 -6 -6 9 -6 24 -1 24 -1 5 -20 -10 -10 -22 -14 -25
-9 -7 10 -39 0 -39 -13 0 -5 -6 -9 -14 -9 -8 0 -18 -9 -21 -20 -3 -11 -11 -20
-16 -20 -5 0 -9 -7 -9 -15 0 -8 -3 -14 -7 -13 -5 1 -19 -5 -33 -14 -14 -8 -45
-19 -68 -22 -24 -4 -50 -13 -58 -21 -18 -17 -18 -25 -1 -25 8 0 14 -7 14 -15
0 -8 -9 -15 -19 -15 -10 0 -18 5 -18 10 0 6 -5 10 -11 10 -6 0 -9 -7 -5 -15 5
-13 -11 -20 -30 -12 -4 1 -10 -8 -15 -20 -5 -13 -15 -23 -23 -23 -8 0 -28 -19
-46 -42 -22 -31 -39 -44 -58 -45 -67 -4 -105 -12 -112 -23 -4 -7 -11 -11 -16
-11 -17 2 -154 -44 -154 -51 0 -5 -12 -8 -27 -8 -16 0 -53 -15 -84 -34 -31
-19 -66 -37 -78 -41 -11 -3 -21 -11 -21 -18 0 -8 -3 -8 -12 1 -18 18 -27 15
-21 -8 4 -14 0 -20 -11 -20 -9 0 -16 7 -16 15 0 8 -6 15 -14 15 -8 0 -21 -7
-30 -15 -19 -20 -27 -19 -19 2 4 10 2 14 -5 10 -15 -10 -62 13 -62 30 0 7 -4
13 -9 13 -5 0 -23 18 -39 41 -20 27 -32 36 -36 27 -3 -7 -4 -3 -2 10 4 19 -1
26 -25 34 -23 8 -29 16 -30 41 -1 31 -1 31 -9 7 -8 -25 -8 -25 -15 8 -6 27
-11 32 -29 27 -15 -5 -17 -4 -8 3 23 16 10 47 -20 47 -29 1 -68 30 -68 52 0 7
9 22 20 33 11 11 20 25 20 30 0 6 7 10 15 10 8 0 15 4 15 10 0 5 13 21 28 35
16 14 34 41 42 60 8 19 19 35 25 35 24 0 134 -118 173 -185 61 -106 67 -110
176 -109 135 1 401 60 546 120 148 63 224 122 226 178 1 17 4 56 8 86 4 33 3
47 -2 36 -11 -24 -25 -6 -21 27 2 12 -1 33 -5 46 -5 14 -4 27 3 34 8 8 11 5
11 -13 0 -13 3 -21 6 -17 10 10 -7 67 -20 67 -9 0 -12 25 -9 98 6 208 15 231
91 228 43 -1 47 -3 53 -31z m-1656 -15 c3 -5 1 -10 -4 -10 -6 0 -11 5 -11 10
0 6 2 10 4 10 3 0 8 -4 11 -10z m-245 -9 c0 -12 -47 -20 -73 -12 -17 4 -11 7
23 12 25 3 46 7 48 7 1 1 2 -2 2 -7z m180 -26 c0 -8 -4 -15 -10 -15 -5 0 -7 7
-4 15 4 8 8 15 10 15 2 0 4 -7 4 -15z m-143 -62 c-37 -36 -67 -70 -67 -75 0
-13 -30 -42 -37 -35 -3 3 9 21 26 39 17 18 31 36 31 39 0 12 58 69 70 69 6 0
9 4 6 9 -6 9 8 18 28 20 5 1 -20 -29 -57 -66z m-123 45 c-3 -4 -22 -8 -42 -8
-28 0 -33 3 -22 10 18 11 71 10 64 -2z m-964 -28 c-5 -10 -10 -20 -10 -22 0
-4 -1 -4 140 -19 59 -6 124 -19 149 -30 24 -10 49 -19 57 -19 25 0 131 -98
169 -157 21 -32 78 -96 126 -144 69 -68 90 -94 99 -129 7 -24 27 -74 45 -111
19 -37 31 -69 28 -73 -4 -3 -1 -6 6 -6 16 0 8 -94 -13 -144 -18 -44 -81 -112
-91 -97 -3 6 5 25 19 41 30 36 66 129 66 171 0 17 -19 62 -45 107 -25 42 -50
95 -56 116 -8 30 -35 63 -121 145 -60 58 -116 106 -124 106 -8 0 -19 7 -25 15
-9 12 -10 10 -6 -8 3 -12 1 -20 -4 -16 -5 3 -9 10 -9 16 0 6 -8 17 -17 24 -16
12 -16 13 -2 14 9 0 28 -9 43 -21 28 -22 32 -19 15 12 -6 12 -17 18 -25 15 -8
-3 -13 -2 -10 3 8 12 -42 55 -94 81 -51 26 -156 50 -217 50 -24 0 -43 5 -43
10 0 6 -9 10 -20 10 -16 0 -20 -7 -20 -37 0 -35 -1 -36 -14 -18 -11 17 -16
105 -6 125 1 3 2 9 1 13 -1 5 3 6 9 2 7 -4 7 -12 0 -25z m875 12 c-3 -3 -11 0
-18 7 -9 10 -8 11 6 5 10 -3 15 -9 12 -12z m330 9 c3 -5 2 -12 -3 -15 -5 -3
-9 1 -9 9 0 17 3 19 12 6z m-401 -25 c-3 -9 -12 -16 -19 -16 -7 0 -15 -6 -18
-14 -3 -8 -14 -19 -24 -25 -15 -7 -19 -6 -20 9 -1 12 7 20 23 24 13 4 24 13
24 20 0 8 8 16 18 18 22 5 24 4 16 -16z m-324 -6 c0 -5 -2 -10 -4 -10 -3 0 -8
5 -11 10 -3 6 -1 10 4 10 6 0 11 -4 11 -10z m-405 -18 c-3 -3 -11 0 -18 7 -9
10 -8 11 6 5 10 -3 15 -9 12 -12z m383 -28 c21 -6 22 -8 7 -24 -14 -15 -14
-18 0 -30 10 -8 15 -9 15 -2 0 6 7 9 16 5 16 -6 16 -7 0 -18 -23 -17 -20 -24
7 -18 17 5 20 3 10 -7 -9 -9 -9 -17 0 -31 14 -23 0 -40 -16 -18 -22 28 -122
104 -157 119 l-35 15 60 6 c33 3 62 6 65 7 3 1 15 -1 28 -4z m244 -16 c-6 -6
-15 -8 -19 -4 -4 4 -1 11 7 16 19 12 27 3 12 -12z m4848 -3 c16 -19 0 -19 -26
0 -16 12 -16 14 -3 15 9 0 22 -7 29 -15z m-5510 -21 c0 -11 6 -14 23 -9 17 5
19 4 7 -4 -23 -16 -37 -13 -43 9 -3 11 -1 20 4 20 5 0 9 -7 9 -16z m2630 -14
c11 -11 20 -28 19 -37 0 -15 -2 -14 -11 4 -14 30 -42 40 -35 13 3 -11 1 -18
-4 -14 -5 3 -9 0 -9 -5 0 -6 8 -11 18 -11 10 0 19 -6 19 -14 0 -17 -27 -9 -44
13 -16 20 -16 44 -1 59 17 17 25 15 48 -8z m-1553 -6 c-3 -3 -12 -4 -19 -1 -8
3 -5 6 6 6 11 1 17 -2 13 -5z m-541 -51 c-3 -12 -9 -34 -12 -47 -4 -17 -1 -25
12 -30 9 -4 21 -1 25 5 3 6 12 10 19 7 14 -4 -21 -31 -57 -42 -16 -5 -26 0
-42 23 -21 29 -21 30 -1 36 23 7 44 41 37 59 -3 7 2 13 10 13 10 0 13 -7 9
-24z m358 6 c-27 -30 -55 -44 -48 -24 4 8 12 15 19 15 7 0 15 7 19 15 3 8 11
15 17 15 7 0 4 -9 -7 -21z m-588 -16 c-3 -3 -17 -6 -33 -8 -15 -2 -37 -5 -47
-7 -10 -2 -21 2 -23 8 -2 7 5 10 19 7 13 -2 32 2 43 11 14 10 24 11 33 4 7 -6
10 -13 8 -15z m-289 -15 c-3 -8 -6 -5 -6 6 -1 11 2 17 5 13 3 -3 4 -12 1 -19z
m307 -3 c-4 -8 -14 -15 -23 -15 -14 1 -13 3 3 15 25 19 27 19 20 0z m3261 -5
c3 -5 2 -10 -4 -10 -5 0 -13 5 -16 10 -3 6 -2 10 4 10 5 0 13 -4 16 -10z
m-3311 -29 c-4 -16 -1 -32 5 -35 6 -4 11 -21 11 -39 0 -20 9 -41 26 -58 21
-22 26 -39 31 -103 5 -63 11 -86 34 -119 30 -44 36 -67 18 -67 -5 0 -7 -5 -3
-11 5 -8 9 -8 14 1 11 17 40 -28 40 -62 0 -17 7 -31 20 -38 11 -6 20 -17 20
-24 0 -7 11 -23 25 -36 39 -37 20 -36 -29 1 -30 22 -45 42 -46 57 0 15 -6 22
-18 22 -18 0 -42 37 -42 65 0 8 -9 24 -20 35 -21 21 -27 50 -9 50 5 0 7 5 4
10 -4 6 -11 8 -16 4 -14 -8 -39 15 -39 37 0 30 -19 22 -42 -16 -29 -49 -43
-39 -44 31 -1 45 -5 58 -15 55 -8 -2 -22 -6 -31 -8 -14 -4 -18 1 -18 25 0 35
-19 37 -47 5 -27 -32 -55 -33 -66 -2 -8 22 -5 30 27 62 20 20 42 37 48 37 6 0
30 15 54 33 29 21 42 37 38 49 -3 9 1 20 9 25 7 4 16 16 20 26 3 9 15 17 26
17 17 0 20 -5 15 -29z m40 -6 c-4 -8 -10 -12 -15 -9 -11 6 -2 24 11 24 5 0 7
-7 4 -15z m-293 -9 c-6 -7 -9 -22 -6 -32 3 -11 1 -10 -7 4 -9 19 -9 25 3 33
20 12 23 11 10 -5z m3309 -65 c0 -13 -10 -18 -42 -20 -23 -1 -46 -7 -50 -14
-5 -8 -8 -9 -8 -1 0 13 50 50 63 46 4 -1 7 5 7 14 0 14 3 14 15 4 8 -7 15 -20
15 -29z m-3250 -35 c0 -2 -7 -6 -15 -10 -8 -3 -15 -1 -15 4 0 6 7 10 15 10 8
0 15 -2 15 -4z m3120 -140 c0 -12 -90 -59 -99 -51 -6 7 51 61 61 58 5 -2 8 1
8 7 0 5 7 7 15 4 8 -4 15 -11 15 -18z m1890 -76 c5 -37 0 -44 -16 -22 -9 13
-13 30 -10 39 7 18 23 8 26 -17z m1260 -40 c0 -5 -4 -10 -10 -10 -5 0 -10 5
-10 10 0 6 5 10 10 10 6 0 10 -4 10 -10z m-804 -71 c4 -8 9 -7 15 2 7 11 9 11
9 -1 0 -25 -16 -41 -33 -34 -10 3 -17 1 -17 -5 0 -6 -6 -11 -14 -11 -10 0 -14
9 -12 28 5 34 3 32 25 32 11 0 23 -5 27 -11z m-2793 -6 c-7 -2 -19 -2 -25 0
-7 3 -2 5 12 5 14 0 19 -2 13 -5z m-2169 -223 c7 -19 27 -49 44 -67 34 -33 42
-56 17 -47 -8 4 -15 12 -15 19 0 7 -20 29 -45 49 -32 26 -45 45 -45 62 0 38
29 27 44 -16z m1641 -40 c-11 -5 -27 -9 -35 -9 -13 -1 -13 0 0 9 8 5 24 9 35
9 l20 0 -20 -9z m-35 -30 c0 -5 -9 -10 -20 -10 -11 0 -20 5 -20 10 0 6 9 10
20 10 11 0 20 -4 20 -10z m-90 -30 c0 -5 -5 -10 -11 -10 -5 0 -7 5 -4 10 3 6
8 10 11 10 2 0 4 -4 4 -10z m-457 -24 c6 -15 -1 -26 -16 -26 -5 0 -7 6 -4 14
4 9 -1 17 -11 19 -13 4 -12 5 4 6 12 0 24 -5 27 -13z m-948 -26 c3 -5 1 -10
-4 -10 -6 0 -11 5 -11 10 0 6 2 10 4 10 3 0 8 -4 11 -10z m1315 -25 c0 -9 -9
-15 -25 -15 -16 0 -25 6 -25 15 0 9 9 15 25 15 16 0 25 -6 25 -15z m-390 -19
c0 -3 -4 -8 -10 -11 -5 -3 -10 -1 -10 4 0 6 5 11 10 11 6 0 10 -2 10 -4z
m-1195 -296 c-3 -5 -11 -10 -16 -10 -6 0 -7 5 -4 10 3 6 11 10 16 10 6 0 7 -4
4 -10z m386 -17 c28 -5 30 -7 14 -14 -28 -11 -96 -10 -120 2 -17 8 -16 9 7 6
15 -2 33 0 40 4 16 11 17 11 59 2z m-968 -33 c3 -12 14 -20 26 -20 12 0 21 -5
21 -10 0 -30 43 -99 66 -104 13 -4 25 -5 27 -4 1 2 14 -7 27 -20 14 -13 48
-39 77 -58 52 -34 72 -54 56 -54 -5 0 -14 5 -21 12 -7 7 -12 8 -12 4 0 -10
-107 50 -129 72 -9 8 -38 25 -66 37 -61 28 -70 38 -79 92 -3 23 -9 48 -12 57
-3 9 -2 16 4 16 5 0 12 -9 15 -20z m222 -10 l29 -30 -27 13 c-14 6 -28 20 -31
29 -6 23 -5 23 29 -12z m389 -78 c3 -9 9 -24 12 -32 6 -17 -22 16 -37 42 -7
13 -6 16 5 12 8 -3 17 -13 20 -22z m-214 -232 c0 -5 -2 -10 -4 -10 -3 0 -8 5
-11 10 -3 6 -1 10 4 10 6 0 11 -4 11 -10z m120 -71 c0 -4 13 -10 28 -14 15 -3
34 -15 42 -25 8 -11 20 -20 27 -20 7 0 13 -4 13 -10 0 -16 -28 -11 -42 8 -7 9
-34 28 -60 42 -26 13 -44 28 -42 32 3 4 0 8 -6 8 -6 0 -18 6 -26 14 -26 27
-14 26 26 0 22 -15 40 -30 40 -35z m197 -115 c-3 -3 -12 -4 -19 -1 -8 3 -5 6
6 6 11 1 17 -2 13 -5z m-334 -67 c51 -60 72 -112 41 -100 -13 5 -16 3 -11 -9
9 -25 -23 -31 -47 -10 -34 31 -54 34 -59 9 -7 -30 1 73 9 123 4 22 10 40 14
40 4 0 28 -24 53 -53z m386 40 c19 -16 133 -67 150 -67 6 0 11 -5 11 -10 0 -6
23 -26 50 -46 28 -20 49 -38 47 -41 -2 -2 -26 7 -53 21 -27 13 -65 31 -85 40
-20 10 -54 32 -75 50 -22 18 -49 36 -61 40 -13 4 -23 12 -23 17 0 13 21 11 39
-4z m271 -121 c0 -29 -20 -6 -25 30 -5 27 -4 28 10 10 8 -11 15 -29 15 -40z
m-348 -3 c0 -10 2 -29 2 -43 1 -14 14 -38 30 -53 23 -23 27 -34 22 -58 -3 -16
-1 -29 4 -29 12 0 9 -43 -5 -52 -6 -5 -3 -8 8 -8 11 0 17 -7 16 -22 0 -13 -3
-17 -6 -10 -2 6 -11 12 -19 12 -9 0 -12 -5 -9 -10 6 -10 -8 -9 -120 9 -39 6
-40 8 -37 41 2 19 7 36 12 38 4 2 6 31 3 65 -3 34 -2 59 2 55 5 -5 14 1 22 12
8 11 23 20 34 20 14 0 19 7 19 25 0 28 19 35 22 8z m-342 -108 c0 -4 -9 4 -20
18 -11 14 -20 28 -20 32 0 4 9 -4 20 -18 11 -14 20 -28 20 -32z m4600 -11 c30
-8 94 -20 142 -26 l86 -12 6 -36 c4 -19 7 -43 8 -52 1 -9 5 -15 9 -12 7 4 19
-19 19 -37 0 -5 -12 -9 -27 -10 l-28 0 23 -16 c12 -8 22 -22 22 -30 0 -12 3
-12 16 1 20 20 21 20 19 -5 -1 -16 -9 -23 -28 -25 -15 -1 -27 2 -27 8 0 6 -7
5 -17 -3 -15 -12 -16 -12 -10 6 6 17 5 18 -5 5 -9 -10 -30 -15 -63 -15 -61 1
-77 -4 -68 -19 3 -6 -3 -3 -14 7 -11 9 -25 17 -32 17 -7 0 -9 5 -5 11 4 8 0 9
-15 4 -30 -9 -118 55 -105 77 3 5 0 8 -5 8 -6 0 -11 9 -11 20 0 13 -5 18 -15
14 -9 -4 -15 0 -15 10 0 9 7 16 16 16 12 0 11 4 -7 19 -22 18 -22 19 -6 44 11
17 23 24 32 20 17 -6 17 16 0 30 -11 8 15 3 105 -19z m695 -4 c3 -5 18 -10 33
-10 25 -1 26 -2 9 -14 -17 -13 -16 -15 13 -42 16 -16 30 -32 30 -36 0 -4 -16
-10 -35 -14 -19 -3 -38 -11 -41 -16 -4 -6 -10 -5 -15 3 -6 10 -9 7 -10 -11 0
-14 -3 -19 -6 -12 -7 17 -23 15 -23 -3 0 -12 11 -14 58 -10 l57 4 -50 -10
c-27 -5 -62 -13 -77 -18 -27 -9 -41 2 -15 12 7 3 14 24 16 48 2 35 8 49 33 69
l31 26 -28 22 c-25 20 -26 22 -7 22 11 0 24 -4 27 -10z m235 -45 c0 -3 -12
-18 -27 -33 -15 -15 -20 -18 -12 -8 16 21 9 20 -38 -9 -38 -23 -43 -35 -10
-28 21 5 21 4 -3 -16 -14 -11 -34 -21 -45 -20 -19 0 -19 0 -2 10 10 6 16 17
13 27 -4 13 10 25 52 49 58 32 72 37 72 28z m-472 -23 c7 -5 14 -34 16 -68 2
-32 7 -75 11 -95 7 -33 4 -38 -34 -69 -23 -18 -44 -30 -47 -27 -3 3 -8 24 -11
47 -5 38 -3 45 33 81 21 22 32 39 24 39 -11 0 -11 3 -2 12 18 18 15 59 -5 74
-19 14 -6 19 15 6z m-62 -17 c-8 -21 20 -31 39 -15 13 10 15 8 15 -13 0 -15
-8 -30 -19 -36 -10 -6 -26 -23 -36 -38 l-18 -28 33 30 33 30 -18 -28 c-10 -15
-27 -33 -37 -38 -16 -9 -19 -17 -13 -47 4 -24 3 -33 -3 -27 -17 18 -21 69 -7
89 10 13 12 33 8 62 -6 47 0 74 18 74 6 0 8 -7 5 -15z m-109 -207 c-3 -8 -6
-5 -6 6 -1 11 2 17 5 13 3 -3 4 -12 1 -19z m183 -98 c0 -5 -5 -10 -11 -10 -5
0 -7 5 -4 10 3 6 8 10 11 10 2 0 4 -4 4 -10z m-33 -6 c-3 -3 -12 -4 -19 -1 -8
3 -5 6 6 6 11 1 17 -2 13 -5z m-147 -19 c0 -8 -4 -15 -9 -15 -13 0 -22 16 -14
24 11 11 23 6 23 -9z m167 -51 c2 -6 -11 -8 -32 -6 -27 3 -35 1 -35 -12 0 -13
-11 -16 -52 -16 -49 1 -51 2 -34 15 18 14 17 15 -25 16 -41 1 -42 2 -14 9 42
11 188 7 192 -6z m53 12 c0 -3 -4 -8 -10 -11 -5 -3 -10 -1 -10 4 0 6 5 11 10
11 6 0 10 -2 10 -4z m-1270 -990 c0 -20 -24 -65 -33 -59 -7 4 -8 0 -4 -12 6
-14 3 -16 -13 -12 -11 3 -20 1 -20 -4 0 -12 -57 -11 -65 1 -4 6 8 10 29 10 26
0 40 7 60 31 14 17 26 35 26 40 0 5 5 9 10 9 6 0 10 -2 10 -4z m-10 -131 c-14
-8 -21 -14 -15 -15 5 0 -3 -11 -18 -25 -15 -14 -27 -32 -27 -40 0 -8 -5 -15
-11 -15 -5 0 -7 -4 -4 -10 3 -5 2 -10 -4 -10 -13 0 -23 17 -13 22 4 1 15 21
23 43 14 38 47 65 79 64 9 0 5 -6 -10 -14z m-520 -47 c0 -18 -17 -14 -26 7
-11 22 -10 23 7 12 11 -7 19 -15 19 -19z m65 -71 c10 3 15 -1 15 -12 0 -9 -4
-13 -10 -10 -5 3 -10 0 -10 -9 0 -8 4 -16 9 -18 20 -7 15 -30 -8 -34 -20 -4
-22 -2 -11 11 10 12 10 15 -3 15 -26 0 -43 29 -29 51 10 15 9 19 -3 19 -9 0
-12 6 -9 15 5 12 10 10 25 -10 12 -14 26 -22 34 -18z m0 23 c3 -5 -1 -10 -10
-10 -9 0 -13 5 -10 10 3 6 8 10 10 10 2 0 7 -4 10 -10z m348 -40 c-5 -19 -23
-29 -23 -12 0 7 20 32 26 32 1 0 0 -9 -3 -20z m-35 -78 c-7 -17 -18 -34 -26
-37 -15 -6 -15 -3 13 42 24 39 29 37 13 -5z m-258 -22 c0 -5 -4 -10 -9 -10 -6
0 -13 5 -16 10 -3 6 1 10 9 10 9 0 16 -4 16 -10z m320 -30 c0 -5 -4 -10 -10
-10 -5 0 -10 5 -10 10 0 6 5 10 10 10 6 0 10 -4 10 -10z m-120 -26 c-12 -13
-11 -17 0 -24 12 -8 12 -10 -2 -15 -21 -8 -11 -45 12 -45 10 0 23 7 30 15 7 8
17 12 23 8 6 -4 8 0 4 10 -4 11 -1 17 8 17 8 0 15 -4 15 -10 0 -5 4 -10 9 -10
5 0 7 9 4 20 -8 29 6 24 17 -6 9 -23 13 -24 28 -13 15 12 15 11 2 -3 -8 -8
-35 -26 -60 -39 -24 -13 -51 -31 -60 -39 -32 -32 -88 -71 -106 -75 -11 -2 -27
-6 -36 -10 -14 -5 -18 -2 -18 12 0 11 -8 27 -19 37 -11 10 -16 25 -14 40 3 13
0 27 -6 30 -7 5 -5 15 6 33 14 21 22 24 53 19 32 -5 41 -1 76 33 38 37 60 48
34 15z m55 16 c-3 -5 -15 -15 -26 -21 -18 -9 -19 -9 -7 10 7 12 19 21 26 21 7
0 10 -4 7 -10z m92 -32 c-3 -8 -6 -5 -6 6 -1 11 2 17 5 13 3 -3 4 -12 1 -19z
m-3273 -67 c9 -13 -19 -32 -38 -25 -17 6 -20 16 -9 27 9 10 41 9 47 -2z m1816
-211 c8 -5 11 -10 5 -10 -5 0 -17 5 -25 10 -8 5 -10 10 -5 10 6 0 17 -5 25
-10z"/>
<path d="M5650 9610 c0 -5 5 -10 10 -10 6 0 10 5 10 10 0 6 -4 10 -10 10 -5 0
-10 -4 -10 -10z"/>
<path d="M5835 9310 c-3 -5 1 -10 9 -10 8 0 18 5 21 10 3 6 -1 10 -9 10 -8 0
-18 -4 -21 -10z"/>
<path d="M1745 9430 c3 -5 8 -10 11 -10 2 0 4 5 4 10 0 6 -5 10 -11 10 -5 0
-7 -4 -4 -10z"/>
<path d="M1752 9380 c-7 -11 -8 -20 -3 -20 5 0 11 6 14 13 4 10 7 10 18 0 7
-7 24 -13 39 -12 l25 0 -22 11 c-13 6 -23 15 -23 20 0 16 -35 8 -48 -12z"/>
<path d="M2047 9334 c-10 -11 -9 -44 2 -44 15 0 19 13 12 33 -4 10 -10 15 -14
11z"/>
<path d="M2110 9300 c0 -5 5 -10 10 -10 6 0 10 5 10 10 0 6 -4 10 -10 10 -5 0
-10 -4 -10 -10z"/>
<path d="M2022 9269 c2 -6 8 -10 13 -10 5 0 11 4 13 10 2 6 -4 11 -13 11 -9 0
-15 -5 -13 -11z"/>
<path d="M2157 9126 c-4 -10 -1 -13 8 -9 8 3 12 9 9 14 -7 12 -11 11 -17 -5z"/>
<path d="M2637 8363 c-4 -3 -7 -15 -7 -25 0 -10 -7 -18 -15 -18 -8 0 -15 -4
-15 -10 0 -5 5 -10 10 -10 6 0 10 -15 11 -32 1 -40 5 -29 14 35 4 31 11 47 21
47 8 0 14 5 14 10 0 11 -23 14 -33 3z"/>
<path d="M2690 8304 c0 -14 3 -14 15 -4 8 7 15 14 15 16 0 2 -7 4 -15 4 -8 0
-15 -7 -15 -16z"/>
<path d="M2631 8114 c0 -11 3 -14 6 -6 3 7 2 16 -1 19 -3 4 -6 -2 -5 -13z"/>
<path d="M2860 8120 c-13 -8 -12 -10 3 -10 9 0 17 5 17 10 0 12 -1 12 -20 0z"/>
<path d="M6302 5504 c-14 -15 -15 -49 -2 -79 7 -15 9 -10 9 23 1 23 6 42 12
42 6 0 8 -9 4 -20 -3 -11 -2 -20 4 -20 15 0 21 14 15 38 -7 26 -25 33 -42 16z"/>
<path d="M6490 5420 c0 -5 5 -10 11 -10 5 0 7 5 4 10 -3 6 -8 10 -11 10 -2 0
-4 -4 -4 -10z"/>
<path d="M6480 5310 c0 -12 8 -12 35 0 18 8 17 9 -7 9 -16 1 -28 -3 -28 -9z"/>
<path d="M6560 5265 c0 -8 7 -15 15 -15 8 0 15 7 15 15 0 8 -7 15 -15 15 -8 0
-15 -7 -15 -15z"/>
<path d="M6335 5240 c-4 -6 -11 -8 -16 -5 -5 4 -9 -5 -9 -19 0 -27 14 -35 24
-13 4 7 8 8 11 2 3 -5 15 -26 27 -45 l23 -35 3 35 c2 19 -1 36 -7 38 -6 2 -11
10 -11 17 0 19 -37 39 -45 25z"/>
<path d="M5318 4593 c7 -3 16 -2 19 1 4 3 -2 6 -13 5 -11 0 -14 -3 -6 -6z"/>
<path d="M5360 4586 c0 -9 5 -16 10 -16 6 0 10 4 10 9 0 6 -4 13 -10 16 -5 3
-10 -1 -10 -9z"/>
<path d="M8178 3103 c7 -3 16 -2 19 1 4 3 -2 6 -13 5 -11 0 -14 -3 -6 -6z"/>
<path d="M8191 3071 c-8 -5 -9 -11 -3 -15 13 -8 42 3 42 15 0 11 -21 11 -39 0z"/>
<path d="M8239 3058 c0 -2 -2 -15 -3 -30 -1 -19 2 -24 10 -17 6 5 14 6 17 2 4
-3 7 -1 7 5 0 7 -5 12 -11 12 -5 0 -8 4 -4 9 3 5 1 12 -5 16 -5 3 -10 5 -11 3z"/>
<path d="M8316 3045 c-10 -27 -7 -52 9 -65 12 -10 16 -9 21 4 3 9 13 16 22 16
13 0 14 2 3 13 -11 10 -14 10 -18 0 -5 -14 -33 -18 -33 -5 0 4 5 13 12 20 9 9
9 15 1 23 -7 7 -12 6 -17 -6z"/>
<path d="M8289 3038 c-6 -12 -4 -48 2 -48 5 0 9 11 9 25 0 21 -6 33 -11 23z"/>
<path d="M7350 1245 c-8 -9 -8 -15 -2 -15 12 0 26 19 19 26 -2 2 -10 -2 -17
-11z"/>
<path d="M9180 9599 c0 -5 5 -7 10 -4 6 3 10 8 10 11 0 2 -4 4 -10 4 -5 0 -10
-5 -10 -11z"/>
<path d="M9837 9464 c-14 -14 -7 -23 23 -29 26 -6 30 -10 24 -28 -6 -20 -5
-20 10 -8 15 13 19 13 27 0 7 -11 9 -11 9 0 0 8 6 11 17 7 15 -6 15 -5 -1 13
-10 11 -24 17 -32 14 -8 -3 -14 -1 -14 5 0 5 -8 12 -17 16 -10 3 -23 8 -29 11
-5 3 -13 2 -17 -1z"/>
<path d="M9758 9449 c-9 -26 2 -39 29 -33 23 6 25 4 19 -17 -7 -23 -6 -23 8
-5 14 17 16 17 22 3 3 -10 11 -17 16 -17 7 0 6 5 -1 13 -8 10 -7 17 2 27 10
10 9 12 -5 7 -10 -4 -18 -2 -18 3 0 6 -13 10 -29 10 -16 0 -31 5 -33 12 -3 8
-6 7 -10 -3z"/>
<path d="M9868 9363 c7 -3 16 -2 19 1 4 3 -2 6 -13 5 -11 0 -14 -3 -6 -6z"/>
<path d="M9520 8939 c0 -5 5 -7 10 -4 6 3 10 8 10 11 0 2 -4 4 -10 4 -5 0 -10
-5 -10 -11z"/>
<path d="M9533 8909 c14 -8 22 -8 30 0 8 8 3 11 -18 11 -26 -1 -28 -2 -12 -11z"/>
<path d="M544 8714 c9 -8 16 -23 16 -31 0 -9 2 -14 5 -11 11 11 -7 58 -22 58
-12 0 -12 -2 1 -16z"/>
<path d="M222 3962 c-3 -9 -14 -12 -34 -8 -17 3 -27 2 -23 -4 3 -5 -21 -37
-55 -70 -33 -34 -58 -66 -55 -71 4 -5 -2 -9 -12 -9 -11 0 -24 -5 -31 -12 -9
-9 -12 -254 -12 -1041 0 -1025 0 -1029 20 -1006 10 13 19 18 20 11 0 -9 10 -7
38 7 20 11 48 24 62 31 14 6 41 19 60 29 19 11 40 16 45 13 6 -3 7 -2 3 3 -4
4 9 17 30 27 20 11 46 29 57 39 46 44 133 108 139 102 3 -4 6 -2 6 4 0 5 21
33 47 61 52 55 68 76 82 107 5 11 18 29 28 40 30 32 60 78 68 105 4 13 14 30
21 38 8 7 14 19 14 26 0 7 18 46 40 86 22 40 40 81 40 91 0 10 5 21 11 25 6 3
8 17 5 29 -4 14 -1 25 6 27 17 6 21 319 6 428 -7 47 -11 89 -10 94 2 4 -3 14
-9 22 -8 10 -8 14 0 14 6 0 11 5 11 10 0 6 -7 10 -15 10 -9 0 -12 6 -9 15 4 8
1 22 -6 30 -7 8 -10 21 -7 30 4 8 2 17 -2 19 -9 6 -25 65 -22 80 1 5 -5 16
-14 26 -8 9 -13 24 -9 33 3 10 -2 20 -16 27 -12 6 -19 17 -17 23 2 7 -2 18
-10 25 -7 7 -13 22 -13 33 0 12 -13 27 -30 37 -16 9 -30 22 -30 28 0 6 -9 22
-21 35 -11 13 -29 34 -39 46 -10 12 -16 23 -14 26 2 2 -11 15 -30 28 -20 13
-41 34 -47 46 -7 13 -17 23 -24 23 -6 0 -22 13 -35 30 -14 16 -31 29 -37 30
-7 0 -13 5 -13 10 0 6 -5 10 -10 10 -11 0 -60 48 -60 59 0 13 -82 6 -88 -7z
m158 -341 c0 -6 -4 -13 -10 -16 -5 -3 -10 1 -10 9 0 9 5 16 10 16 6 0 10 -4
10 -9z m59 -23 c-1 -18 1 -44 3 -58 2 -19 -2 -25 -17 -26 -17 0 -41 -7 -65
-20 -3 -1 -6 12 -6 29 -1 18 1 24 3 15 5 -18 23 -25 23 -9 0 10 19 9 38 -2 7
-5 12 -3 12 7 0 10 -9 16 -25 16 -14 0 -25 5 -25 10 0 6 7 10 15 10 8 0 15 5
15 10 0 6 -4 10 -10 10 -5 0 -6 8 -3 17 4 11 8 12 11 5 5 -17 22 -15 22 3 0 8
2 15 4 15 3 0 5 -15 5 -32z"/>
<path d="M650 3630 c0 -5 5 -10 10 -10 6 0 10 5 10 10 0 6 -4 10 -10 10 -5 0
-10 -4 -10 -10z"/>
<path d="M1110 540 c0 -5 5 -10 10 -10 6 0 10 5 10 10 0 6 -4 10 -10 10 -5 0
-10 -4 -10 -10z"/>
<path d="M587 405 c-7 -16 8 -29 23 -20 15 9 12 35 -4 35 -8 0 -16 -7 -19 -15z"/>
<path d="M1135 300 c-3 -5 1 -10 9 -10 9 0 16 5 16 10 0 6 -4 10 -9 10 -6 0
-13 -4 -16 -10z"/>
<path d="M1031 254 c0 -11 3 -14 6 -6 3 7 2 16 -1 19 -3 4 -6 -2 -5 -13z"/>
<path d="M1066 145 c4 -8 8 -15 10 -15 2 0 4 7 4 15 0 8 -4 15 -10 15 -5 0 -7
-7 -4 -15z"/>
<path d="M735 120 c3 -5 8 -10 11 -10 2 0 4 5 4 10 0 6 -5 10 -11 10 -5 0 -7
-4 -4 -10z"/>
<path d="M1135 70 c-3 -5 -1 -10 4 -10 6 0 11 5 11 10 0 6 -2 10 -4 10 -3 0
-8 -4 -11 -10z"/>
<path d="M738 18 c-14 -14 -15 -18 -4 -18 8 0 17 7 20 16 9 23 4 24 -16 2z"/>
</g>
</svg>
